<svg id="Layer_1" data-name="Layer 1" xmlns="http://www.w3.org/2000/svg" xmlns:xlink="http://www.w3.org/1999/xlink" viewBox="0 0 4769.91 3536.36"><defs><style>.cls-1{fill:url(#linear-gradient);}.cls-2{fill:#feba27;}.cls-3{fill:#fff;}.cls-4{fill:url(#linear-gradient-2);}.cls-5{fill:url(#linear-gradient-3);}</style><linearGradient id="linear-gradient" x1="10953.22" y1="-2498.75" x2="10953.22" y2="411.12" gradientTransform="matrix(-1, 0, 0, 1, 13323.71, 2797.55)" gradientUnits="userSpaceOnUse"><stop offset="0" stop-color="#121212"/><stop offset="1" stop-color="#363636"/></linearGradient><linearGradient id="linear-gradient-2" x1="10895.88" y1="3389.33" x2="10895.88" y2="3657.62" gradientTransform="translate(13323.7 5367.19) rotate(180)" gradientUnits="userSpaceOnUse"><stop offset="0"/><stop offset="1" stop-opacity="0"/></linearGradient><linearGradient id="linear-gradient-3" x1="10895.88" y1="2398.47" x2="10895.88" y2="2666.76" gradientTransform="matrix(-1, 0, 0, 1, 13323.7, 307.6)" xlink:href="#linear-gradient-2"/></defs><title>arya</title><path class="cls-1" d="M2806.31,3208.67h-758.5V2722.83H1594.3c-163.46,0-322.22-32.1-471.89-95.41A1214.38,1214.38,0,0,1,477.69,1982.7c-63.31-149.67-95.41-308.43-95.41-471.89s32.1-322.22,95.41-471.88A1214.43,1214.43,0,0,1,1122.41,394.2c149.67-63.3,308.43-95.4,471.89-95.4s322.22,32.1,471.88,95.4a1214.48,1214.48,0,0,1,644.73,644.73c63.3,149.66,95.4,308.43,95.4,471.88v453.52H4358.69v758.5H2806.31ZM1594.3,1057.3c-250.07,0-453.52,203.44-453.52,453.51s203.45,453.52,453.52,453.52h453.51V1510.81C2047.81,1260.74,1844.37,1057.3,1594.3,1057.3Z"/><path class="cls-2" d="M2436.54,3208.67h-19V3095.94h19Zm0-336.49h-19V2693.94h19Z"/><path class="cls-2" d="M4358.69,2353.06H4180.44v-19h178.25Zm-402,0H3778.44v-19h178.25Zm-402,0H3376.44v-19h178.24Zm-402,0H2974.43v-19h178.25Zm-402,0H2572.43v-19h178.25Zm-402,0H2170.43v-19h178.24Zm-402,0H1768.42v-19h178.25Zm-402.51-1.47A842.76,842.76,0,0,1,1366.75,2322l5.11-18.26a823.27,823.27,0,0,0,173.41,29ZM1159.67,2232.4a846.43,846.43,0,0,1-143.24-108.85l13-13.79a828.07,828.07,0,0,0,140,106.4ZM874.44,1948.29a840.38,840.38,0,0,1-76.58-162.79l17.93-6.18a820.22,820.22,0,0,0,74.85,159.11Zm1562.1-115.37h-19V1654.67h19ZM753.72,1564.32c-1.11-17.7-1.67-35.7-1.67-53.51a852.75,852.75,0,0,1,9.39-126.19l18.75,2.82A832.49,832.49,0,0,0,771,1510.81c0,17.42.55,35,1.64,52.32ZM2413.85,1432a821.06,821.06,0,0,0-35.26-172.24l18.06-5.78a840.43,840.43,0,0,1,36.08,176.23ZM842,1175.78l-17.32-7.73a842.59,842.59,0,0,1,90.47-155.52l15.28,11.23A823.77,823.77,0,0,0,842,1175.78Zm1441.7-115.09a828.22,828.22,0,0,0-111.37-136.07l13.31-13.51a847,847,0,0,1,113.93,139.19ZM1083.57,865.05l-11.77-14.87a844.1,844.1,0,0,1,152.08-96l8.35,17A825.84,825.84,0,0,0,1083.57,865.05Zm912.55-73a820.36,820.36,0,0,0-161.76-69l5.52-18.14a838.71,838.71,0,0,1,165.5,70.59Zm-554.68-90.39-3.5-18.63a849,849,0,0,1,156.36-14.49c7.62,0,15.34.1,22.94.3l-.5,19c-7.44-.2-15-.3-22.44-.3a831.28,831.28,0,0,0-152.86,14.15Z"/><path class="cls-3" d="M4358.69,2699.62H1594.3c-160.49,0-316.18-31.43-462.74-93.42a1192.28,1192.28,0,0,1-632.65-632.65c-62-146.56-93.43-302.25-93.43-462.74s31.44-316.17,93.43-462.74a1192.29,1192.29,0,0,1,632.65-632.64c146.56-62,302.25-93.43,462.74-93.43s316.17,31.43,462.74,93.43a1192.24,1192.24,0,0,1,632.64,632.64c62,146.57,93.43,302.26,93.43,462.74v479.13h-11.38V1510.81c0-649.24-528.19-1177.43-1177.43-1177.43S416.86,861.57,416.86,1510.81,945.06,2688.25,1594.3,2688.25H4358.69Z"/><path class="cls-3" d="M4358.69,1995.62H1594.3c-267.9.15-485.2-216.91-485.35-484.81s216.91-485.2,484.81-485.35,485.2,216.91,485.35,484.81v.54l6,473.44H4358.69ZM1594.3,1037.38c-261.06,0-473.44,212.38-473.44,473.43s212.38,473.44,473.44,473.44h479.42l-6-473.36C2067.73,1249.76,1855.35,1037.38,1594.3,1037.38Z"/><rect class="cls-3" x="2771.73" y="2693.94" width="11.38" height="514.73"/><rect class="cls-3" x="2072.84" y="2693.79" width="11.38" height="514.74" transform="matrix(1, 0, 0, 1, -13.37, 9.46)"/><rect class="cls-4" x="2048.01" y="1708.76" width="759.62" height="275.55"/><rect class="cls-5" x="2048.01" y="2699.62" width="759.62" height="275.55"/></svg>